  0
SECTION
  2
HEADER
  9
$ACADVER
  1
AC1014
  9
$HANDSEED
  5
FFFF
  9
$MEASUREMENT
 70
     1
  0
ENDSEC
  0
SECTION
  2
TABLES
  0
TABLE
  2
VPORT
  5
8
330
0
100
AcDbSymbolTable
 70
     4
  0
VPORT
  5
2E
330
8
100
AcDbSymbolTableRecord
100
AcDbViewportTableRecord
  2
*ACTIVE
 70
     0
 10
0.0
 20
0.0
 11
1.0
 21
1.0
 12
210.0
 22
148.5
 13
0.0
 23
0.0
 14
10.0
 24
10.0
 15
10.0
 25
10.0
 16
0.0
 26
0.0
 36
1.0
 17
0.0
 27
0.0
 37
0.0
 40
341.0
 41
1.24
 42
50.0
 43
0.0
 44
0.0
 50
0.0
 51
0.0
 71
     0
 72
   100
 73
     1
 74
     3
 75
     0
 76
     0
 77
     0
 78
     0
  0
ENDTAB
  0
TABLE
  2
LTYPE
  5
5
330
0
100
AcDbSymbolTable
 70
     1
  0
LTYPE
  5
14
330
5
100
AcDbSymbolTableRecord
100
AcDbLinetypeTableRecord
  2
BYBLOCK
 70
     0
  3

 72
    65
 73
     0
 40
0.0
  0
LTYPE
  5
15
330
5
100
AcDbSymbolTableRecord
100
AcDbLinetypeTableRecord
  2
BYLAYER
 70
     0
  3

 72
    65
 73
     0
 40
0.0
  0
LTYPE
  5
16
330
5
100
AcDbSymbolTableRecord
100
AcDbLinetypeTableRecord
  2
CONTINUOUS
 70
     0
  3
Solid line
 72
    65
 73
     0
 40
0.0
  0
ENDTAB
  0
TABLE
  2
LAYER
  5
2
100
AcDbSymbolTable
 70
3
  0
LAYER
  5
50
100
AcDbSymbolTableRecord
100
AcDbLayerTableRecord
  2
0
 70
0
  6
CONTINUOUS
  0
LAYER
  5
51
100
AcDbSymbolTableRecord
100
AcDbLayerTableRecord
  2
Edge.Cuts
 70
0
  6
CONTINUOUS
  0
LAYER
  5
52
100
AcDbSymbolTableRecord
100
AcDbLayerTableRecord
  2
Cu
 70
0
  6
CONTINUOUS
  0
ENDTAB
  0
TABLE
  2
STYLE
  5
3
330
0
100
AcDbSymbolTable
 70
     1
  0
STYLE
  5
11
330
3
100
AcDbSymbolTableRecord
100
AcDbTextStyleTableRecord
  2
STANDARD
 70
     0
 40
0.0
 41
1.0
 50
0.0
 71
     0
 42
2.5
  3
txt
  4

  0
ENDTAB
  0
TABLE
  2
VIEW
  5
6
330
0
100
AcDbSymbolTable
 70
     0
  0
ENDTAB
  0
TABLE
  2
UCS
  5
7
330
0
100
AcDbSymbolTable
 70
     0
  0
ENDTAB
  0
TABLE
  2
APPID
  5
9
330
0
100
AcDbSymbolTable
 70
     2
  0
APPID
  5
12
330
9
100
AcDbSymbolTableRecord
100
AcDbRegAppTableRecord
  2
ACAD
 70
     0
  0
ENDTAB
  0
TABLE
  2
DIMSTYLE
  5
A
330
0
100
AcDbSymbolTable
 70
     1
  0
DIMSTYLE
105
27
330
A
100
AcDbSymbolTableRecord
100
AcDbDimStyleTableRecord
  2
ISO-25
 70
     0
  3

  4

  5

  6

  7

 40
1.0
 41
2.5
 42
0.625
 43
3.75
 44
1.25
 45
0.0
 46
0.0
 47
0.0
 48
0.0
140
2.5
141
2.5
142
0.0
143
0.03937007874016
144
1.0
145
0.0
146
1.0
147
0.625
 71
     0
 72
     0
 73
     0
 74
     0
 75
     0
 76
     0
 77
     1
 78
     8
170
     0
171
     3
172
     1
173
     0
174
     0
175
     0
176
     0
177
     0
178
     0
270
     2
271
     2
272
     2
273
     2
274
     3
340
11
275
     0
280
     0
281
     0
282
     0
283
     0
284
     8
285
     0
286
     0
287
     3
288
     0
  0
ENDTAB
  0
TABLE
  2
BLOCK_RECORD
  5
1
330
0
100
AcDbSymbolTable
 70
     1
  0
BLOCK_RECORD
  5
1F
330
1
100
AcDbSymbolTableRecord
100
AcDbBlockTableRecord
  2
*MODEL_SPACE
  0
BLOCK_RECORD
  5
1B
330
1
100
AcDbSymbolTableRecord
100
AcDbBlockTableRecord
  2
*PAPER_SPACE
  0
ENDTAB
  0
ENDSEC
  0
SECTION
  2
BLOCKS
  0
BLOCK
  5
20
330
1F
100
AcDbEntity
  8
0
100
AcDbBlockBegin
  2
*MODEL_SPACE
 70
     0
 10
0.0
 20
0.0
 30
0.0
  3
*MODEL_SPACE
  1

  0
ENDBLK
  5
21
330
1F
100
AcDbEntity
  8
0
100
AcDbBlockEnd
  0
BLOCK
  5
1C
330
1B
100
AcDbEntity
 67
     1
  8
0
100
AcDbBlockBegin
  2
*PAPER_SPACE
  1

  0
ENDBLK
  5
1D
330
1B
100
AcDbEntity
 67
     1
  8
0
100
AcDbBlockEnd
  0
ENDSEC
  0
SECTION
  2
ENTITIES
  0
SPLINE
  5
100
100
AcDbEntity
  8
Edge.Cuts
 62
2
100
AcDbSpline
 70
8
 71
3
 72
8
 73
4
 74
0
 40
0
 40
0
 40
0
 40
0
 40
1
 40
1
 40
1
 40
1
 10
9.921875
 20
26.458285
 30
0.0
 10
10.835158
 20
26.458285
 30
0.0
 10
11.575521
 20
25.940031
 30
0.0
 10
11.575521
 20
25.300733
 30
0.0
  0
SPLINE
  5
101
100
AcDbEntity
  8
Edge.Cuts
 62
2
100
AcDbSpline
 70
8
 71
3
 72
8
 73
4
 74
0
 40
0
 40
0
 40
0
 40
0
 40
1
 40
1
 40
1
 40
1
 10
11.575521
 20
25.300733
 30
0.0
 10
11.575521
 20
24.661434
 30
0.0
 10
10.835158
 20
24.143181
 30
0.0
 10
9.921875
 20
24.143181
 30
0.0
  0
LWPOLYLINE
  5
102
100
AcDbEntity
  8
Edge.Cuts
 62
2
100
AcDbPolyline
 90
2
 70
0
 10
9.921875
 20
44.317660
 30
0.0
 10
9.921875
 20
26.458285
 30
0.0
  0
SPLINE
  5
103
100
AcDbEntity
  8
Edge.Cuts
 62
2
100
AcDbSpline
 70
8
 71
3
 72
8
 73
4
 74
0
 40
0
 40
0
 40
0
 40
0
 40
1
 40
1
 40
1
 40
1
 10
37.703125
 20
24.143181
 30
0.0
 10
36.607183
 20
24.143181
 30
0.0
 10
35.718750
 20
24.661434
 30
0.0
 10
35.718750
 20
25.300733
 30
0.0
  0
SPLINE
  5
104
100
AcDbEntity
  8
Edge.Cuts
 62
2
100
AcDbSpline
 70
8
 71
3
 72
8
 73
4
 74
0
 40
0
 40
0
 40
0
 40
0
 40
1
 40
1
 40
1
 40
1
 10
35.718750
 20
25.300733
 30
0.0
 10
35.718750
 20
25.940031
 30
0.0
 10
36.607183
 20
26.458285
 30
0.0
 10
37.703125
 20
26.458285
 30
0.0
  0
LWPOLYLINE
  5
105
100
AcDbEntity
  8
Edge.Cuts
 62
2
100
AcDbPolyline
 90
5
 70
0
 10
9.921875
 20
24.143181
 30
0.0
 10
9.921875
 20
12.898390
 30
0.0
 10
36.710937
 20
12.898437
 30
0.0
 10
37.703125
 20
13.890625
 30
0.0
 10
37.703125
 20
24.143181
 30
0.0
  0
SPLINE
  5
106
100
AcDbEntity
  8
Edge.Cuts
 62
2
100
AcDbSpline
 70
8
 71
3
 72
8
 73
4
 74
0
 40
0
 40
0
 40
0
 40
0
 40
1
 40
1
 40
1
 40
1
 10
15.875000
 20
41.010368
 30
0.0
 10
16.605627
 20
41.010368
 30
0.0
 10
17.197916
 20
40.418078
 30
0.0
 10
17.197916
 20
39.687451
 30
0.0
  0
SPLINE
  5
107
100
AcDbEntity
  8
Edge.Cuts
 62
2
100
AcDbSpline
 70
8
 71
3
 72
8
 73
4
 74
0
 40
0
 40
0
 40
0
 40
0
 40
1
 40
1
 40
1
 40
1
 10
17.197916
 20
39.687451
 30
0.0
 10
17.197916
 20
38.956825
 30
0.0
 10
16.605627
 20
38.364535
 30
0.0
 10
15.875000
 20
38.364535
 30
0.0
  0
SPLINE
  5
108
100
AcDbEntity
  8
Edge.Cuts
 62
2
100
AcDbSpline
 70
8
 71
3
 72
8
 73
4
 74
0
 40
0
 40
0
 40
0
 40
0
 40
1
 40
1
 40
1
 40
1
 10
15.875000
 20
38.364535
 30
0.0
 10
15.144373
 20
38.364535
 30
0.0
 10
14.552083
 20
38.956825
 30
0.0
 10
14.552083
 20
39.687451
 30
0.0
  0
SPLINE
  5
109
100
AcDbEntity
  8
Edge.Cuts
 62
2
100
AcDbSpline
 70
8
 71
3
 72
8
 73
4
 74
0
 40
0
 40
0
 40
0
 40
0
 40
1
 40
1
 40
1
 40
1
 10
14.552083
 20
39.687451
 30
0.0
 10
14.552083
 20
40.418078
 30
0.0
 10
15.144373
 20
41.010368
 30
0.0
 10
15.875000
 20
41.010368
 30
0.0
  0
LWPOLYLINE
  5
10a
100
AcDbEntity
  8
Edge.Cuts
 62
2
100
AcDbPolyline
 90
3
 70
0
 10
37.703125
 20
26.458285
 30
0.0
 10
37.703125
 20
44.317660
 30
0.0
 10
9.921875
 20
44.317660
 30
0.0
  0
SPLINE
  5
10b
100
AcDbEntity
  8
Edge.Cuts
 62
2
100
AcDbSpline
 70
8
 71
3
 72
8
 73
4
 74
0
 40
0
 40
0
 40
0
 40
0
 40
1
 40
1
 40
1
 40
1
 10
31.750000
 20
41.010368
 30
0.0
 10
32.480625
 20
41.010368
 30
0.0
 10
33.072916
 20
40.418078
 30
0.0
 10
33.072916
 20
39.687451
 30
0.0
  0
SPLINE
  5
10c
100
AcDbEntity
  8
Edge.Cuts
 62
2
100
AcDbSpline
 70
8
 71
3
 72
8
 73
4
 74
0
 40
0
 40
0
 40
0
 40
0
 40
1
 40
1
 40
1
 40
1
 10
33.072916
 20
39.687451
 30
0.0
 10
33.072916
 20
38.956825
 30
0.0
 10
32.480625
 20
38.364535
 30
0.0
 10
31.750000
 20
38.364535
 30
0.0
  0
SPLINE
  5
10d
100
AcDbEntity
  8
Edge.Cuts
 62
2
100
AcDbSpline
 70
8
 71
3
 72
8
 73
4
 74
0
 40
0
 40
0
 40
0
 40
0
 40
1
 40
1
 40
1
 40
1
 10
31.750000
 20
38.364535
 30
0.0
 10
31.019374
 20
38.364535
 30
0.0
 10
30.427083
 20
38.956825
 30
0.0
 10
30.427083
 20
39.687451
 30
0.0
  0
SPLINE
  5
10e
100
AcDbEntity
  8
Edge.Cuts
 62
2
100
AcDbSpline
 70
8
 71
3
 72
8
 73
4
 74
0
 40
0
 40
0
 40
0
 40
0
 40
1
 40
1
 40
1
 40
1
 10
30.427083
 20
39.687451
 30
0.0
 10
30.427083
 20
40.418078
 30
0.0
 10
31.019374
 20
41.010368
 30
0.0
 10
31.750000
 20
41.010368
 30
0.0
  0
LWPOLYLINE
  5
10f
100
AcDbEntity
  8
Edge.Cuts
 62
2
100
AcDbPolyline
 90
1
 70
1
 10
15.875000
 20
41.010368
 30
0.0
  0
LWPOLYLINE
  5
110
100
AcDbEntity
  8
Edge.Cuts
 62
2
100
AcDbPolyline
 90
1
 70
1
 10
31.750000
 20
41.010368
 30
0.0
  0
LWPOLYLINE
  5
111
100
AcDbEntity
  8
Cu
 62
7
100
AcDbPolyline
 90
4
 70
1
 10
10.583333
 20
18.845312
 30
0.0
 10
11.840104
 20
18.845312
 30
0.0
 10
11.840104
 20
13.884374
 30
0.0
 10
10.583333
 20
13.884374
 30
0.0
  0
LWPOLYLINE
  5
112
100
AcDbEntity
  8
Cu
 62
7
100
AcDbPolyline
 90
4
 70
1
 10
12.104688
 20
18.845312
 30
0.0
 10
13.361459
 20
18.845312
 30
0.0
 10
13.361459
 20
14.744271
 30
0.0
 10
12.104688
 20
14.744271
 30
0.0
  0
LWPOLYLINE
  5
113
100
AcDbEntity
  8
Cu
 62
7
100
AcDbPolyline
 90
4
 70
1
 10
13.626042
 20
18.845312
 30
0.0
 10
14.882813
 20
18.845312
 30
0.0
 10
14.882813
 20
14.744271
 30
0.0
 10
13.626042
 20
14.744271
 30
0.0
  0
LWPOLYLINE
  5
114
100
AcDbEntity
  8
Cu
 62
7
100
AcDbPolyline
 90
4
 70
1
 10
15.081250
 20
18.845312
 30
0.0
 10
16.338021
 20
18.845312
 30
0.0
 10
16.338021
 20
14.744271
 30
0.0
 10
15.081250
 20
14.744271
 30
0.0
  0
LWPOLYLINE
  5
115
100
AcDbEntity
  8
Cu
 62
7
100
AcDbPolyline
 90
4
 70
1
 10
16.602604
 20
18.845312
 30
0.0
 10
17.859375
 20
18.845312
 30
0.0
 10
17.859375
 20
14.744271
 30
0.0
 10
16.602604
 20
14.744271
 30
0.0
  0
LWPOLYLINE
  5
116
100
AcDbEntity
  8
Cu
 62
7
100
AcDbPolyline
 90
4
 70
1
 10
18.123959
 20
18.845312
 30
0.0
 10
19.380730
 20
18.845312
 30
0.0
 10
19.380730
 20
14.744271
 30
0.0
 10
18.123959
 20
14.744271
 30
0.0
  0
LWPOLYLINE
  5
117
100
AcDbEntity
  8
Cu
 62
7
100
AcDbPolyline
 90
4
 70
1
 10
19.645313
 20
18.845312
 30
0.0
 10
20.902084
 20
18.845312
 30
0.0
 10
20.902084
 20
14.744271
 30
0.0
 10
19.645313
 20
14.744271
 30
0.0
  0
LWPOLYLINE
  5
118
100
AcDbEntity
  8
Cu
 62
7
100
AcDbPolyline
 90
4
 70
1
 10
21.166666
 20
18.845312
 30
0.0
 10
22.423437
 20
18.845312
 30
0.0
 10
22.423437
 20
13.884374
 30
0.0
 10
21.166666
 20
13.884374
 30
0.0
  0
LWPOLYLINE
  5
119
100
AcDbEntity
  8
Cu
 62
7
100
AcDbPolyline
 90
4
 70
1
 10
22.621876
 20
18.845312
 30
0.0
 10
23.878647
 20
18.845312
 30
0.0
 10
23.878647
 20
14.744271
 30
0.0
 10
22.621876
 20
14.744271
 30
0.0
  0
LWPOLYLINE
  5
11a
100
AcDbEntity
  8
Cu
 62
7
100
AcDbPolyline
 90
4
 70
1
 10
24.077084
 20
18.845312
 30
0.0
 10
25.333855
 20
18.845312
 30
0.0
 10
25.333855
 20
14.744271
 30
0.0
 10
24.077084
 20
14.744271
 30
0.0
  0
LWPOLYLINE
  5
11b
100
AcDbEntity
  8
Cu
 62
7
100
AcDbPolyline
 90
4
 70
1
 10
25.598438
 20
18.845312
 30
0.0
 10
26.855209
 20
18.845312
 30
0.0
 10
26.855209
 20
14.744271
 30
0.0
 10
25.598438
 20
14.744271
 30
0.0
  0
LWPOLYLINE
  5
11c
100
AcDbEntity
  8
Cu
 62
7
100
AcDbPolyline
 90
4
 70
1
 10
27.119793
 20
18.845312
 30
0.0
 10
28.376564
 20
18.845312
 30
0.0
 10
28.376564
 20
14.744271
 30
0.0
 10
27.119793
 20
14.744271
 30
0.0
  0
LWPOLYLINE
  5
11d
100
AcDbEntity
  8
Cu
 62
7
100
AcDbPolyline
 90
4
 70
1
 10
28.641146
 20
18.845312
 30
0.0
 10
29.897917
 20
18.845312
 30
0.0
 10
29.897917
 20
14.744271
 30
0.0
 10
28.641146
 20
14.744271
 30
0.0
  0
LWPOLYLINE
  5
11e
100
AcDbEntity
  8
Cu
 62
7
100
AcDbPolyline
 90
4
 70
1
 10
30.162500
 20
18.845312
 30
0.0
 10
31.419271
 20
18.845312
 30
0.0
 10
31.419271
 20
14.744271
 30
0.0
 10
30.162500
 20
14.744271
 30
0.0
  0
LWPOLYLINE
  5
11f
100
AcDbEntity
  8
Cu
 62
7
100
AcDbPolyline
 90
4
 70
1
 10
31.617708
 20
18.845312
 30
0.0
 10
32.874479
 20
18.845312
 30
0.0
 10
32.874479
 20
14.744271
 30
0.0
 10
31.617708
 20
14.744271
 30
0.0
  0
LWPOLYLINE
  5
120
100
AcDbEntity
  8
Cu
 62
7
100
AcDbPolyline
 90
4
 70
1
 10
33.139065
 20
18.845312
 30
0.0
 10
34.395836
 20
18.845312
 30
0.0
 10
34.395836
 20
14.744271
 30
0.0
 10
33.139065
 20
14.744271
 30
0.0
  0
LWPOLYLINE
  5
121
100
AcDbEntity
  8
Cu
 62
7
100
AcDbPolyline
 90
4
 70
1
 10
34.660416
 20
18.845312
 30
0.0
 10
35.917187
 20
18.845312
 30
0.0
 10
35.917187
 20
13.884374
 30
0.0
 10
34.660416
 20
13.884374
 30
0.0
  0
ENDSEC
  0
SECTION
  2
OBJECTS
  0
DICTIONARY
  5
C
330
0
100
AcDbDictionary
  3
ACAD_GROUP
350
D
  3
ACAD_MLINESTYLE
350
17
  0
DICTIONARY
  5
D
330
C
100
AcDbDictionary
  0
DICTIONARY
  5
1A
330
C
100
AcDbDictionary
  0
DICTIONARY
  5
17
330
C
100
AcDbDictionary
  3
STANDARD
350
18
  0
DICTIONARY
  5
19
330
C
100
AcDbDictionary
  0
ENDSEC
  0
EOF
